<svg xmlns="http://www.w3.org/2000/svg" viewBox="0 0 64 64">
  <rect width="64" height="64" rx="14" fill="#0f766e" />
  <path
    d="M20 40c-6.1 0-11-4.9-11-11s4.9-11 11-11c1.7 0 3.3.4 4.8 1.1C27 14.2 32 11 37.8 11 46.2 11 53 17.8 53 26.2c0 7.6-5.6 13.9-12.9 15-.9 4.7-5 8.3-10 8.3-4.2 0-7.8-2.5-9.4-6.1-.2 0-.4 0-.7 0Z"
    fill="#ccfbf1"
  />
  <path
    d="M24 49c0-4.4 3.6-8 8-8"
    fill="none"
    stroke="#f8fafc"
    stroke-linecap="round"
    stroke-width="4"
  />
  <path
    d="M35 49c0-3.3 2.7-6 6-6"
    fill="none"
    stroke="#f8fafc"
    stroke-linecap="round"
    stroke-width="4"
  />
</svg>
